<?xml version="1.0" standalone="no"?>
<!DOCTYPE svg PUBLIC "-//W3C//DTD SVG 20010904//EN"
 "http://www.w3.org/TR/2001/REC-SVG-20010904/DTD/svg10.dtd">
<svg version="1.0" xmlns="http://www.w3.org/2000/svg"
 width="215.000000pt" height="236.000000pt" viewBox="0 0 215.000000 236.000000"
 preserveAspectRatio="xMidYMid meet">

<g transform="translate(0.000000,236.000000) scale(0.100000,-0.100000)"
fill="#000000" stroke="none">
<path d="M875 2323 c-94 -20 -211 -78 -321 -159 -81 -60 -121 -104 -130 -142
-3 -15 -15 -57 -25 -93 -12 -40 -20 -101 -20 -155 -2 -102 18 -343 30 -359 4
-5 14 -30 21 -54 11 -34 12 -45 2 -49 -18 -6 -14 -56 7 -83 10 -13 22 -44 26
-69 3 -25 13 -70 20 -100 8 -30 16 -66 19 -80 3 -14 10 -45 16 -70 29 -130 60
-302 60 -338 0 -40 14 -64 23 -40 3 9 11 7 28 -8 13 -12 42 -33 64 -46 22 -14
91 -75 152 -137 62 -61 117 -111 122 -111 11 0 61 -62 61 -75 0 -12 41 -45 56
-45 7 0 23 -10 34 -22 l21 -22 44 24 c25 14 45 27 45 31 0 3 17 11 37 17 31
10 38 9 49 -6 8 -9 14 -20 14 -24 0 -8 -64 -68 -86 -81 -8 -4 -14 -12 -14 -17
0 -6 175 -10 458 -9 l457 0 -95 33 c-117 41 -288 104 -397 146 -81 31 -83 33
-93 73 -29 118 -36 134 -72 173 l-37 41 8 74 c5 49 18 94 38 134 35 70 49 123
59 218 7 65 8 69 39 81 41 18 43 20 67 119 14 59 18 99 14 143 -4 34 -2 74 4
88 6 18 6 37 -3 63 -10 30 -18 39 -40 41 -21 3 -27 8 -23 20 3 9 10 67 16 127
12 115 6 219 -14 270 -7 17 -13 48 -15 70 -1 22 -13 63 -26 92 -19 41 -35 60
-78 87 -35 23 -64 51 -79 77 -12 23 -30 46 -38 50 -62 31 -104 47 -115 43 -14
-6 -56 12 -66 29 -15 22 -256 45 -324 30z m425 -422 c107 -44 113 -52 107
-136 -4 -64 4 -161 19 -221 6 -22 4 -23 -24 -18 -16 3 -54 1 -83 -4 -30 -6
-82 -14 -117 -18 -45 -4 -65 -11 -70 -23 -3 -9 -12 -22 -19 -29 -14 -14 -17
-104 -4 -136 7 -19 8 -19 14 3 5 20 10 22 32 17 18 -5 35 -1 54 14 25 17 30
18 35 5 3 -9 20 -15 43 -16 21 -1 52 -4 68 -8 29 -7 30 -7 8 -19 -12 -7 -44
-12 -72 -12 -58 0 -65 -12 -20 -31 37 -15 130 0 159 26 21 19 44 19 59 1 9
-11 9 -15 -1 -18 -10 -4 -10 -8 1 -21 19 -24 10 -145 -17 -221 -12 -33 -19
-69 -16 -83 10 -39 -28 -137 -117 -302 -23 -43 -49 -65 -49 -41 0 6 16 41 35
77 19 36 33 68 31 71 -5 4 -65 -29 -67 -38 -1 -3 -3 -26 -4 -52 -3 -49 -35
-108 -60 -108 -8 0 -17 -9 -20 -21 -5 -16 -12 -19 -30 -15 -13 3 -27 2 -30 -4
-9 -14 -62 -12 -68 3 -4 7 -8 5 -12 -8 -5 -17 -15 -20 -60 -20 -29 0 -56 3
-60 7 -4 4 -13 4 -21 1 -8 -3 -28 9 -46 26 -17 17 -37 31 -42 31 -12 0 -29 24
-63 90 -27 53 -27 50 -8 50 8 0 15 -7 15 -15 0 -8 7 -15 15 -15 20 0 19 7 -3
35 -13 17 -23 20 -34 14 -13 -7 -21 -2 -36 18 -33 48 -61 109 -72 160 -6 26
-12 58 -15 71 -3 12 -12 22 -21 22 -40 0 -86 91 -101 200 -14 97 -14 121 -2
137 6 6 11 56 12 110 1 78 5 100 18 110 13 10 15 25 11 81 -3 42 0 77 7 90 18
34 102 71 224 98 123 27 257 66 327 94 64 26 108 24 190 -9z m45 -471 c-3 -5
-17 -10 -31 -10 -14 0 -22 4 -19 10 3 6 17 10 31 10 14 0 22 -4 19 -10z m309
-154 c16 -38 11 -115 -10 -155 -8 -14 -14 -20 -15 -13 -2 16 -4 23 -13 45 -5
9 -5 32 -2 50 3 17 9 49 12 70 4 20 8 37 10 37 2 0 10 -15 18 -34z"/>
<path d="M648 1501 c-18 -10 -38 -16 -44 -14 -17 6 -34 -51 -41 -132 -5 -64
-4 -68 10 -50 8 10 13 24 10 31 -5 13 24 27 37 19 5 -3 21 12 37 32 36 50 37
50 99 58 42 5 61 2 96 -14 27 -14 34 -19 18 -16 -14 2 -37 -1 -51 -9 -15 -8
-35 -10 -53 -5 -18 5 -40 3 -60 -5 -38 -16 -71 -51 -57 -60 6 -4 8 -13 5 -21
-7 -18 87 -65 132 -65 36 0 104 26 104 40 0 5 -21 3 -47 -5 -65 -20 -106 -19
-134 4 l-23 19 39 11 c22 6 56 11 76 11 26 0 39 5 44 18 6 15 8 15 18 2 16
-20 67 -23 67 -4 0 8 14 17 30 21 28 5 30 9 25 34 -4 15 -26 48 -50 72 l-43
44 -105 1 c-82 0 -112 -3 -139 -17z m282 -106 c11 -13 10 -14 -4 -9 -9 3 -16
10 -16 15 0 13 6 11 20 -6z"/>
<path d="M1206 1074 c-10 -7 -23 -11 -28 -8 -4 3 -31 -8 -58 -25 -58 -36 -71
-37 -106 -14 -28 18 -107 20 -112 3 -5 -15 -77 -50 -101 -50 -29 0 -32 13 -10
49 18 29 18 31 1 22 -10 -5 -39 -33 -66 -61 -37 -39 -47 -56 -42 -73 3 -12 6
-25 6 -29 0 -5 7 -8 15 -8 8 0 15 -5 15 -11 0 -6 9 -8 21 -4 14 5 34 -2 61
-20 41 -27 84 -28 100 -2 5 8 55 12 158 13 138 1 150 0 150 -17 0 -18 -15 -32
-39 -36 -7 -1 -18 -6 -24 -12 -8 -8 -3 -11 15 -11 40 0 58 10 59 34 0 11 3 15
6 9 8 -21 29 -15 74 23 51 43 89 60 99 44 4 -6 11 6 18 25 14 48 1 83 -45 118
-35 26 -60 30 -35 5 23 -23 13 -34 -25 -30 -43 5 -73 27 -73 53 0 25 -12 30
-34 13z m-106 -155 c8 0 37 2 63 5 30 4 46 2 42 -4 -3 -6 -16 -10 -29 -10 -12
0 -26 -3 -29 -7 -10 -10 -50 -14 -153 -17 -90 -3 -134 5 -134 23 0 14 43 18
140 14 47 -3 92 -4 100 -4z"/>
<path d="M1375 809 c-4 -6 -5 -12 -2 -15 2 -3 7 2 10 11 7 17 1 20 -8 4z"/>
<path d="M1200 751 c-19 -21 -34 -44 -32 -53 2 -12 -17 -16 -110 -22 -61 -4
-114 -9 -117 -12 -16 -16 90 -58 129 -50 8 1 38 6 65 10 86 12 159 60 124 82
-6 3 -8 15 -6 26 4 14 2 18 -9 14 -11 -4 -13 0 -8 19 8 32 6 31 -36 -14z"/>
<path d="M340 1374 c0 -22 7 -34 24 -43 41 -23 46 -8 10 34 l-34 40 0 -31z"/>
<path d="M546 407 c-37 -48 -55 -100 -56 -159 0 -41 -3 -49 -27 -62 -26 -13
-287 -117 -413 -164 l-55 -21 425 0 425 -1 -35 28 c-62 48 -195 193 -207 225
-6 18 -12 57 -13 87 -1 30 -5 66 -9 80 -7 24 -7 24 -35 -13z"/>
<path d="M1125 34 c-13 -10 -15 -14 -4 -14 20 0 43 16 32 23 -4 3 -17 -1 -28
-9z"/>
</g>
</svg>
