<?xml version="1.0" standalone="no"?>
<!DOCTYPE svg PUBLIC "-//W3C//DTD SVG 20010904//EN"
 "http://www.w3.org/TR/2001/REC-SVG-20010904/DTD/svg10.dtd">
<svg version="1.0" xmlns="http://www.w3.org/2000/svg"
 width="212.000000pt" height="265.000000pt" viewBox="0 0 212.000000 265.000000"
 preserveAspectRatio="xMidYMid meet">

<g transform="translate(0.000000,265.000000) scale(0.100000,-0.100000)"
fill="#000000" stroke="none">
<path d="M824 2494 c-27 -15 -79 -41 -115 -59 -36 -18 -83 -50 -105 -71 -21
-21 -53 -46 -71 -56 -97 -54 -225 -235 -277 -394 -9 -28 -19 -87 -21 -130 -2
-44 -9 -92 -16 -107 -10 -22 -9 -41 5 -104 9 -45 18 -137 20 -218 3 -153 26
-257 68 -310 18 -23 23 -47 29 -132 6 -86 11 -109 28 -127 35 -37 53 -164 55
-396 1 -113 8 -247 16 -297 l13 -93 33 0 c30 0 34 3 34 26 0 14 4 23 10 19 6
-3 10 -15 10 -26 0 -19 15 -19 790 -19 l791 0 -3 413 c-3 377 -5 415 -22 452
-73 158 -123 249 -140 257 -56 27 -137 179 -117 217 5 9 12 43 16 76 4 33 12
71 17 85 5 14 9 95 9 181 0 179 -11 225 -66 285 -23 25 -33 44 -29 56 3 10 1
18 -5 18 -6 0 -11 4 -11 10 0 5 7 7 15 4 12 -5 14 2 10 40 -5 57 -14 73 -27
55 -9 -13 -4 13 9 47 4 12 -68 61 -103 70 -13 3 -24 10 -24 15 0 5 -8 9 -18 9
-10 0 -56 26 -102 57 -47 31 -107 63 -135 70 -27 7 -80 25 -117 39 -95 36
-113 30 -63 -21 22 -21 34 -36 27 -31 -8 5 -12 1 -12 -13 0 -11 24 -44 53 -74
28 -29 63 -66 77 -82 22 -25 23 -27 4 -17 -12 6 -25 8 -29 4 -3 -4 -5 0 -3 8
1 8 -3 14 -10 12 -6 -1 -11 4 -10 10 2 7 -4 13 -12 13 -8 0 -34 10 -58 23 -52
27 -60 28 -38 3 10 -11 13 -22 8 -25 -5 -3 -15 1 -23 10 -7 8 -22 20 -33 26
-21 11 -21 11 -2 -11 19 -21 19 -21 -7 -21 -18 0 -33 10 -49 33 -12 17 -30 41
-40 51 -10 11 -18 23 -18 28 0 4 -11 10 -25 14 -13 3 -30 13 -37 22 -11 13 -9
15 17 9 l30 -6 -30 14 -30 13 27 7 c19 5 32 2 43 -9 9 -9 22 -16 28 -16 7 0
36 -11 65 -25 35 -16 52 -20 52 -12 0 7 -6 19 -12 26 -11 10 -9 11 5 5 16 -6
16 -4 -2 28 -16 27 -31 37 -68 46 -71 17 -126 19 -131 4 -2 -6 1 -12 7 -12 6
0 11 -4 11 -10 0 -19 -41 -10 -66 15 -31 31 -39 31 -100 -1z m135 -101 c9 -8
44 -34 79 -59 70 -52 89 -92 22 -48 -46 30 -59 26 -41 -12 l12 -26 -30 18
c-16 11 -52 41 -80 67 -38 36 -50 54 -46 67 5 16 12 18 37 13 17 -3 38 -12 47
-20z m-115 -74 c26 -11 44 -25 40 -30 -3 -5 0 -17 8 -26 11 -14 10 -15 -12 -9
-24 7 -25 7 -3 -6 12 -7 22 -17 22 -22 0 -11 71 -52 124 -70 58 -21 13 -20
-54 0 -81 24 -110 36 -104 42 3 3 -16 19 -42 35 -27 16 -39 26 -28 22 11 -4
29 -9 40 -12 20 -4 20 -4 0 8 -28 18 -60 49 -51 49 5 0 3 6 -3 13 -10 13 -6
27 9 27 4 0 28 -9 54 -21z m-168 -63 c10 -8 17 -17 14 -19 -3 -3 -16 3 -30 13
-29 22 -14 27 16 6z m-66 -26 c15 -37 54 -66 129 -96 63 -26 57 -32 -9 -9 -57
20 -68 19 -42 -5 17 -16 41 -22 103 -27 48 -4 75 -9 67 -14 -8 -6 -1 -9 20 -9
20 0 31 -4 27 -10 -4 -6 8 -10 30 -10 32 0 35 -2 21 -15 -8 -8 -25 -16 -38
-16 -16 -1 -13 -4 12 -9 30 -6 26 -7 -25 -7 -33 0 -50 2 -37 4 28 6 19 23 -12
23 -52 0 -196 80 -196 109 0 20 -45 42 -58 29 -12 -12 -52 29 -52 54 0 25 25
22 38 -4 6 -13 11 -17 11 -10 1 7 -4 22 -9 33 -6 10 -7 19 -2 19 5 0 15 -14
22 -30z m85 -20 c8 -13 -5 -13 -25 0 -13 8 -13 10 2 10 9 0 20 -4 23 -10z
m-165 -32 c15 -21 17 -28 6 -19 -16 13 -41 51 -33 51 2 0 14 -15 27 -32z m387
-24 c-3 -3 -12 -4 -19 -1 -8 3 -5 6 6 6 11 1 17 -2 13 -5z m-199 -133 c-6 -2
-27 13 -47 34 l-36 38 46 -34 c26 -19 42 -36 37 -38z m419 -92 c17 -9 26 -9
37 0 23 20 159 4 192 -21 19 -16 35 -19 65 -15 51 7 78 -15 118 -95 35 -69 38
-111 15 -166 -9 -20 -16 -64 -16 -97 l0 -60 -46 0 c-26 0 -54 5 -62 10 -8 5
-28 10 -45 12 -138 9 -221 2 -240 -22 -5 -6 -24 -19 -42 -28 -41 -22 -50 -37
-29 -52 14 -11 4 -14 -58 -20 -82 -7 -116 3 -116 35 0 14 -17 28 -52 47 -46
24 -65 28 -141 28 -51 0 -91 -4 -95 -11 -4 -6 -16 -14 -26 -17 -31 -12 -13
-17 75 -24 141 -10 139 -19 -3 -15 -73 2 -169 -1 -213 -6 -44 -6 -81 -9 -83
-7 -6 6 47 215 65 257 24 58 109 132 173 153 30 10 79 28 109 42 29 13 84 30
120 37 37 7 76 19 88 27 26 18 179 24 210 8z m143 -519 c-47 -4 -105 -11 -130
-15 -25 -4 -42 -5 -39 -2 10 11 112 25 184 24 l70 0 -85 -7z m-579 -14 c-16
-19 -153 -44 -158 -29 -2 6 -13 8 -25 5 -15 -3 -19 -1 -16 9 6 17 51 26 142
28 58 1 67 -1 57 -13z m542 -13 c-7 -2 -21 -2 -30 0 -10 3 -4 5 12 5 17 0 24
-2 18 -5z m-773 -18 c0 -8 -5 -15 -11 -15 -6 0 -9 -10 -7 -22 2 -18 8 -22 27
-20 24 4 24 4 7 -23 l-18 -28 73 9 c71 9 163 10 296 4 l61 -2 -13 -45 c-28
-93 -70 -113 -240 -113 -149 0 -181 10 -206 63 -24 54 -26 168 -3 191 20 20
34 20 34 1z m-139 -36 c-9 -23 -10 -22 -10 11 -1 23 2 31 9 24 7 -7 7 -19 1
-35z m708 -33 c6 -7 20 -38 30 -69 22 -62 82 -177 94 -177 11 0 8 25 -5 39
-11 11 -3 11 42 5 30 -5 114 -9 187 -9 121 0 134 2 162 23 21 15 31 18 32 10
1 -7 2 -20 3 -28 2 -20 -21 -102 -31 -109 -13 -10 -53 -69 -53 -79 0 -11 -73
-47 -111 -57 -15 -3 -40 2 -63 15 -22 11 -41 19 -42 17 -1 -1 -7 -20 -13 -42
-8 -29 -8 -41 1 -47 19 -11 2 -21 -18 -10 -14 8 -21 6 -30 -6 -18 -25 -29 -7
-43 71 -12 61 -12 70 4 87 19 21 14 48 -17 93 -22 31 -68 38 -68 10 0 -24 10
-38 36 -51 24 -12 36 -53 22 -74 -6 -11 -10 -10 -18 2 -8 12 -13 11 -37 -11
-43 -40 -66 -49 -131 -49 -45 0 -66 5 -86 21 -17 14 -33 18 -47 14 -20 -7 -21
-12 -16 -84 3 -42 1 -85 -3 -96 -8 -18 -9 -18 -9 5 -1 19 -4 21 -10 11 -5 -8
-7 -20 -4 -28 3 -7 0 -13 -6 -13 -6 0 -11 5 -11 10 0 6 -7 10 -15 10 -8 0 -15
5 -15 12 0 6 -3 8 -7 5 -3 -4 -12 2 -20 12 -7 11 -22 18 -36 17 -28 -3 -28 10
-2 69 10 22 21 55 25 73 l8 32 -33 -20 c-18 -11 -49 -20 -68 -20 -26 0 -39 -6
-47 -20 -12 -23 -69 -27 -115 -10 -17 6 -33 7 -44 0 -31 -16 -49 77 -55 273
-5 192 3 208 44 86 35 -103 38 -104 265 -104 l179 0 23 33 c12 19 32 59 43 90
12 31 26 62 32 69 14 17 83 17 97 -1z m267 -45 c-8 -12 20 -22 39 -15 10 4 15
0 15 -10 0 -14 -7 -16 -42 -11 -62 8 -103 26 -86 36 18 12 81 11 74 0z m-41
-53 c53 -21 146 -30 182 -17 14 5 25 4 29 -2 4 -7 21 -9 40 -6 39 7 45 -8 16
-43 -15 -18 -33 -24 -101 -30 -96 -10 -226 2 -270 25 -34 17 -51 43 -51 76 0
17 5 20 24 17 14 -3 31 -1 38 3 7 5 20 6 28 3 8 -4 38 -15 65 -26z m-694 -542
c21 -15 39 -21 39 -15 0 15 75 1 125 -23 29 -15 64 -21 130 -23 111 -4 105 -3
105 -15 0 -5 -16 -10 -36 -10 l-36 0 23 -20 c15 -12 19 -19 10 -20 -11 0 -11
-3 -1 -15 9 -10 9 -15 1 -15 -6 0 -13 0 -16 0 -3 0 -13 -8 -23 -17 -17 -16
-17 -20 -4 -35 8 -10 21 -18 28 -18 7 0 14 -6 17 -12 6 -20 223 -13 254 7 25
17 82 102 83 123 0 8 -8 10 -25 6 -33 -8 -32 6 3 38 37 35 69 51 77 38 4 -6
11 -8 16 -5 5 4 9 -6 9 -21 0 -16 -13 -41 -33 -63 -31 -35 -54 -75 -106 -191
-16 -36 -31 -51 -66 -68 -25 -12 -61 -22 -79 -22 -21 0 -36 -6 -40 -15 -6 -18
-47 -20 -64 -3 -9 9 -21 8 -52 -1 -33 -10 -53 -10 -96 0 -30 7 -54 16 -54 21
0 4 -7 8 -16 8 -28 0 -104 108 -104 148 0 31 -32 115 -56 147 -29 40 -64 115
-63 134 1 14 2 13 6 -1 2 -9 22 -28 44 -42z m859 5 c0 -19 -28 -56 -37 -48 -3
4 29 67 35 67 1 0 2 -9 2 -19z"/>
<path d="M780 2070 c34 -11 60 -11 35 0 -11 5 -29 8 -40 8 -16 0 -15 -2 5 -8z"/>
<path d="M730 1229 c-14 -6 -53 -9 -87 -7 -63 4 -83 -4 -40 -16 38 -10 96 -7
132 8 19 8 35 17 35 20 0 8 -11 6 -40 -5z"/>
</g>
</svg>
