<?xml version="1.0" standalone="no"?>
<!DOCTYPE svg PUBLIC "-//W3C//DTD SVG 20010904//EN"
 "http://www.w3.org/TR/2001/REC-SVG-20010904/DTD/svg10.dtd">
<svg version="1.0" xmlns="http://www.w3.org/2000/svg"
 width="188.000000pt" height="189.000000pt" viewBox="0 0 188.000000 189.000000"
 preserveAspectRatio="xMidYMid meet">

<g transform="translate(0.000000,189.000000) scale(0.100000,-0.100000)"
fill="#000000" stroke="none">
<path d="M786 1379 c-109 -12 -181 -55 -311 -182 l-110 -108 0 -92 c0 -74 5
-101 22 -136 l22 -44 -25 -106 c-50 -216 -56 -238 -86 -321 -44 -121 -71 -171
-113 -203 -44 -35 -40 -44 10 -23 51 22 87 20 119 -5 19 -15 34 -19 53 -14 21
5 31 1 45 -17 12 -16 18 -18 18 -8 0 8 15 22 33 30 23 11 41 32 62 75 20 40
43 68 70 86 l40 27 47 -51 c45 -50 47 -51 44 -23 -2 15 3 45 10 65 11 33 11
54 0 168 -5 46 13 74 37 56 6 -6 25 -13 41 -17 16 -4 48 -22 73 -41 51 -39 97
-52 118 -35 8 7 15 16 15 21 0 4 5 20 10 35 l11 28 25 -27 c14 -15 31 -27 39
-27 32 0 61 -153 47 -250 -5 -36 -8 -68 -5 -73 2 -4 15 6 29 22 18 22 23 36
18 55 -3 15 -3 42 0 61 6 28 12 35 30 35 22 0 23 5 44 192 12 106 22 235 22
286 0 83 3 97 24 125 42 55 76 129 76 163 0 107 -40 176 -124 213 -151 67
-281 83 -480 60z m279 -139 c3 -5 -1 -20 -9 -32 -22 -31 -21 -101 2 -121 9 -9
41 -19 70 -23 46 -6 52 -5 52 12 0 14 3 15 12 6 7 -7 16 -12 20 -12 12 0 10
58 -3 82 -8 16 -8 19 2 16 22 -7 54 -160 51 -241 -3 -70 -31 -186 -55 -230
-34 -62 -100 -85 -139 -50 -12 10 -33 16 -56 16 -125 -5 -153 -4 -204 11 -108
32 -154 82 -165 178 -3 29 -14 68 -25 87 -20 35 -19 76 3 147 11 37 53 79 68
69 6 -3 23 3 37 14 44 34 59 24 20 -13 -20 -18 -36 -42 -36 -52 0 -17 10 -19
91 -22 85 -2 93 -1 116 22 19 20 24 33 21 67 -3 42 -7 46 -58 67 -20 8 -3 11
77 11 58 1 104 -3 108 -9z m-436 -37 c-28 -34 -84 -81 -91 -77 -4 3 16 25 45
49 57 48 66 54 46 28z m741 -142 c0 -6 -4 -13 -10 -16 -5 -3 -10 1 -10 9 0 9
5 16 10 16 6 0 10 -4 10 -9z"/>
<path d="M949 989 l-34 -17 30 -13 c17 -8 32 -16 35 -20 3 -3 12 -9 20 -12 8
-3 1 -6 -16 -6 -17 -1 -52 -7 -77 -15 -55 -16 -58 -11 -22 51 14 23 23 43 19
43 -11 0 -77 -51 -101 -78 -28 -31 -29 -48 -3 -62 11 -6 20 -17 20 -25 0 -11
8 -13 33 -8 17 3 33 9 35 12 12 27 25 33 78 36 80 3 122 -9 126 -38 2 -18 9
-22 40 -22 30 0 38 4 38 19 0 13 5 17 19 13 14 -3 20 2 24 18 3 18 -9 37 -53
80 -39 39 -59 53 -63 44 -5 -12 -7 -12 -15 0 -15 21 -93 21 -133 0z m151 -64
c7 -9 11 -18 8 -20 -8 -9 -68 17 -62 26 8 14 40 11 54 -6z"/>
<path d="M955 806 c24 -19 79 -31 102 -22 29 11 -1 27 -63 33 -55 5 -58 4 -39
-11z"/>
<path d="M20 691 c0 -26 21 -59 42 -66 13 -4 26 -8 31 -10 18 -6 23 -7 30 -6
4 1 17 -3 28 -9 36 -20 41 2 5 26 -19 13 -38 24 -41 24 -3 0 -23 11 -43 25
-39 27 -52 31 -52 16z"/>
<path d="M30 598 c0 -15 59 -48 85 -48 23 0 6 28 -23 38 -15 6 -35 13 -44 17
-12 5 -18 2 -18 -7z"/>
<path d="M566 269 c-14 -17 -26 -38 -26 -48 0 -10 -13 -35 -30 -57 -25 -33
-39 -74 -26 -74 2 0 26 15 54 33 36 25 65 36 107 40 32 3 62 12 66 18 11 18
-29 70 -63 83 -16 6 -26 16 -24 23 10 26 -33 12 -58 -18z"/>
<path d="M1304 291 c3 -4 -15 -29 -39 -55 -25 -25 -45 -55 -45 -66 0 -17 7
-20 43 -20 27 0 63 -10 93 -25 58 -30 54 -29 54 -7 0 9 -15 31 -34 47 -18 17
-37 41 -40 55 -6 19 -5 21 3 10 15 -21 13 -5 -3 35 -8 19 -20 35 -26 35 -6 0
-9 -4 -6 -9z"/>
<path d="M40 145 c0 -7 3 -20 6 -29 5 -12 9 -13 18 -3 20 19 19 30 -3 39 -15
5 -21 3 -21 -7z"/>
<path d="M1180 145 c-10 -12 -10 -15 3 -15 8 0 17 7 21 15 3 8 2 15 -3 15 -5
0 -14 -7 -21 -15z"/>
</g>
</svg>
