<?xml version="1.0" standalone="no"?>
<!DOCTYPE svg PUBLIC "-//W3C//DTD SVG 20010904//EN"
 "http://www.w3.org/TR/2001/REC-SVG-20010904/DTD/svg10.dtd">
<svg version="1.0" xmlns="http://www.w3.org/2000/svg"
 width="188.000000pt" height="184.000000pt" viewBox="0 0 188.000000 184.000000"
 preserveAspectRatio="xMidYMid meet">

<g transform="translate(0.000000,184.000000) scale(0.100000,-0.100000)"
fill="#000000" stroke="none">
<path d="M1685 1800 c0 -21 5 -43 10 -47 4 -5 5 -2 0 6 -5 9 -4 12 3 8 5 -4 8
-17 4 -29 -3 -14 -1 -19 6 -14 7 4 19 -8 30 -30 10 -20 22 -35 27 -34 5 1 11
-4 14 -11 2 -8 -1 -9 -10 -4 -8 5 -11 4 -6 -1 5 -5 10 -7 13 -4 2 3 11 -5 19
-18 9 -12 20 -20 25 -17 4 3 10 -4 13 -15 3 -10 0 -21 -7 -24 -6 -2 -3 -5 6
-5 12 -1 15 -6 11 -18 -5 -11 -3 -14 6 -8 8 4 17 2 22 -6 5 -8 9 52 9 149 l0
162 -98 0 -98 0 1 -40z"/>
<path d="M896 1682 c-3 -6 -15 -8 -25 -5 -10 3 -22 0 -25 -6 -4 -5 -13 -8 -21
-5 -8 4 -17 0 -20 -8 -3 -8 -15 -14 -26 -15 -34 -3 -133 -24 -154 -33 -11 -4
-36 -15 -56 -24 -43 -19 -129 -108 -157 -162 -60 -120 -91 -284 -98 -524 -5
-149 -2 -193 16 -294 11 -66 33 -156 47 -200 22 -67 35 -89 75 -128 44 -42 56
-70 49 -111 -1 -5 3 -6 9 -2 21 13 -2 -108 -26 -136 -8 -8 -14 -19 -14 -22 0
-4 223 -7 495 -7 l495 0 28 44 c15 24 35 58 44 75 21 38 87 71 143 71 35 0 43
-5 62 -34 20 -32 29 -82 21 -131 -3 -18 3 -20 60 -23 l62 -3 0 105 c0 97 -2
106 -21 116 -11 7 -38 28 -60 47 -39 35 -39 35 -39 113 l0 77 -46 7 c-26 3
-70 6 -99 6 -31 0 -57 5 -64 13 -6 8 -37 14 -80 15 -75 2 -110 11 -128 34 -9
10 -5 27 18 73 43 87 55 167 49 326 -5 130 -6 138 -36 185 -16 27 -47 94 -68
149 -54 140 -84 205 -112 242 -13 17 -24 36 -24 42 0 5 -19 26 -42 47 -24 20
-37 33 -29 29 8 -5 12 -4 8 2 -3 5 -25 16 -49 23 -24 8 -45 17 -48 21 -9 13
-107 22 -114 11z m-118 -329 c6 -18 24 -35 48 -47 22 -10 46 -22 54 -26 9 -4
16 -23 16 -48 2 -38 -1 -43 -40 -66 -53 -31 -115 -93 -122 -123 -8 -29 3 -101
19 -131 13 -22 13 -22 25 12 7 19 22 38 32 41 11 4 20 12 20 18 0 7 4 18 9 26
7 11 13 9 30 -8 11 -11 27 -18 35 -15 8 3 16 -1 18 -10 2 -12 12 -10 50 14 73
46 81 42 74 -33 -8 -83 -11 -94 -35 -149 -16 -37 -24 -46 -38 -42 -13 4 -11 0
5 -12 13 -10 35 -19 50 -20 32 -4 52 -28 52 -65 0 -19 -14 -41 -44 -71 -24
-23 -51 -57 -60 -75 -28 -56 -83 -101 -132 -109 -37 -5 -50 -2 -89 22 -25 16
-69 44 -98 62 -91 57 -164 192 -178 332 -17 152 -24 134 54 144 43 5 66 13 64
20 -4 12 -41 13 -106 1 l-43 -8 4 99 c3 86 8 106 33 153 34 62 46 71 135 101
36 12 69 26 75 31 5 5 23 9 41 9 26 0 34 -5 42 -27z m102 -253 c-45 -25 -61
-25 -31 0 13 11 33 20 45 20 17 -1 14 -4 -14 -20z m-77 -65 c-3 -9 -8 -14 -10
-11 -3 3 -2 9 2 15 9 16 15 13 8 -4z m125 -665 c22 -19 44 -30 63 -30 17 0 43
-7 59 -15 30 -16 35 -30 30 -98 -2 -32 19 -44 50 -27 13 7 25 8 29 3 3 -5 24
-8 45 -7 l39 2 -29 -23 c-78 -63 -228 -114 -277 -96 -38 15 -79 70 -72 98 3
13 -6 66 -20 118 -14 52 -25 97 -25 100 0 3 17 5 38 5 28 0 46 -8 70 -30z"/>
<path d="M538 952 c-48 -6 -75 -73 -28 -69 10 0 16 6 13 12 -2 7 3 18 12 25
12 10 15 10 15 -3 0 -8 5 -17 12 -19 15 -5 88 14 88 23 0 21 -57 37 -112 31z"/>
<path d="M797 853 c-4 -3 -7 -17 -7 -31 0 -14 -16 -44 -35 -68 l-35 -43 50
-18 51 -19 -26 -27 -27 -26 36 10 c20 6 43 6 51 2 13 -8 13 -11 0 -30 -8 -12
-23 -24 -33 -26 -9 -2 -1 -2 18 0 19 3 46 5 60 5 14 0 37 11 52 25 14 14 31
22 37 19 6 -4 11 0 11 9 0 9 -5 13 -10 10 -7 -4 -8 3 -4 20 8 33 -13 75 -37
75 -18 0 -64 52 -64 71 0 9 -59 49 -74 49 -4 0 -11 -3 -14 -7z"/>
<path d="M641 749 c-19 -31 -40 -109 -34 -125 14 -37 40 -3 55 70 12 62 2 90
-21 55z"/>
<path d="M703 620 c-13 -5 -23 -11 -23 -14 0 -7 40 6 46 15 6 10 6 10 -23 -1z"/>
<path d="M1796 1151 c-48 -6 -77 -30 -39 -32 73 -4 68 0 68 -51 0 -27 3 -48 7
-48 5 0 8 -10 8 -21 0 -20 -4 -21 -54 -16 -62 6 -75 -5 -46 -41 21 -25 30 -28
30 -8 0 24 30 27 71 6 l39 -20 0 120 c0 108 -2 120 -17 118 -10 0 -40 -4 -67
-7z"/>
<path d="M1482 798 c3 -7 22 -14 44 -16 39 -2 39 -2 14 13 -31 18 -63 19 -58
3z"/>
<path d="M1676 794 c18 -14 16 -15 -31 -10 l-50 6 -3 -80 -2 -79 145 -3 145
-3 0 86 0 86 -61 7 c-34 3 -85 6 -112 6 -48 0 -50 -1 -31 -16z"/>
<path d="M13 93 c-8 -3 -13 -23 -13 -49 l0 -44 110 0 c101 0 110 2 121 21 13
24 9 29 -46 58 -38 20 -138 28 -172 14z"/>
</g>
</svg>
